<?xml version="1.0" encoding="UTF-8"?>
<svg xmlns="http://www.w3.org/2000/svg" xmlns:xlink="http://www.w3.org/1999/xlink" width="120px" height="59px" viewBox="0 0 120 59" version="1.1">
<g id="surface1">
<path style=" stroke:none;fill-rule:nonzero;fill:rgb(0%,0%,0%);fill-opacity:1;" d="M 6.667969 0.277344 C 4.539062 0.730469 2.703125 1.761719 1.785156 3.015625 C 1.039062 4.027344 0.953125 4.011719 6.132812 4.011719 C 9.199219 4.011719 11.066406 4.078125 11.449219 4.203125 C 12.195312 4.464844 12.78125 4.988281 12.851562 5.472656 C 12.902344 5.824219 12.992188 5.839844 16.265625 5.894531 L 19.625 5.929688 L 19.503906 5.109375 C 19.175781 2.648438 17.007812 0.890625 13.511719 0.242188 C 11.8125 -0.0507812 8.210938 -0.0351562 6.667969 0.277344 Z M 6.667969 0.277344 "/>
<path style=" stroke:none;fill-rule:nonzero;fill:rgb(0%,0%,0%);fill-opacity:1;" d="M 32.738281 2.265625 L 32.738281 4.359375 L 51.289062 4.359375 L 51.234375 2.300781 L 51.183594 0.261719 L 41.96875 0.210938 L 32.738281 0.175781 Z M 32.738281 2.265625 "/>
<path style=" stroke:none;fill-rule:nonzero;fill:rgb(0%,0%,0%);fill-opacity:1;" d="M 53.695312 2.179688 L 53.695312 4.183594 L 60.363281 4.183594 C 67.515625 4.183594 67.726562 4.203125 68.175781 5.074219 C 68.503906 5.71875 68.488281 5.980469 68.054688 6.519531 L 67.707031 6.972656 L 53.695312 6.972656 L 53.695312 18.308594 L 60.105469 18.308594 L 60.105469 12.03125 L 64.210938 12.03125 L 66.097656 15.167969 L 67.96875 18.308594 L 71.484375 18.308594 C 73.421875 18.308594 75 18.253906 75 18.203125 C 75 18.148438 74.097656 16.71875 73.007812 15.027344 L 71 11.941406 L 71.691406 11.714844 C 72.558594 11.417969 73.875 10.269531 74.289062 9.433594 C 75 8.019531 75.207031 5.632812 74.738281 4.0625 C 74.375 2.824219 73.199219 1.550781 71.742188 0.835938 L 70.582031 0.261719 L 62.148438 0.210938 L 53.695312 0.15625 Z M 53.695312 2.179688 "/>
<path style=" stroke:none;fill-rule:nonzero;fill:rgb(0%,0%,0%);fill-opacity:1;" d="M 76.558594 2.179688 L 76.558594 4.183594 L 83.226562 4.183594 C 90.382812 4.183594 90.589844 4.203125 91.039062 5.074219 C 91.386719 5.753906 91.351562 6.050781 90.847656 6.539062 L 90.433594 6.972656 L 76.558594 6.972656 L 76.558594 18.308594 L 82.96875 18.308594 L 82.96875 12.03125 L 87.054688 12.03125 L 88.945312 15.152344 L 90.8125 18.253906 L 94.035156 18.339844 C 95.800781 18.375 98.28125 18.375 99.527344 18.339844 L 101.796875 18.273438 L 102.246094 17.332031 L 102.714844 16.390625 L 112.914062 16.390625 L 113.347656 17.347656 L 113.78125 18.308594 L 116.726562 18.308594 C 118.355469 18.308594 119.6875 18.253906 119.6875 18.167969 C 119.6875 18.097656 117.660156 14.035156 115.203125 9.152344 L 110.734375 0.261719 L 108.117188 0.210938 L 105.484375 0.15625 L 104.445312 2.265625 L 103.40625 4.359375 L 105.726562 4.359375 C 107.910156 4.359375 108.046875 4.375 107.960938 4.691406 C 107.910156 4.882812 108.65625 6.574219 109.796875 8.855469 C 110.855469 10.984375 111.71875 12.761719 111.71875 12.816406 C 111.71875 12.867188 110.09375 12.902344 108.082031 12.902344 C 106.089844 12.902344 104.445312 12.867188 104.445312 12.832031 C 104.445312 12.796875 105.035156 11.542969 105.746094 10.023438 C 106.453125 8.527344 107.042969 7.253906 107.042969 7.21875 C 107.042969 7.183594 105.882812 7.148438 104.464844 7.148438 L 101.863281 7.148438 L 99.472656 11.855469 C 98.15625 14.4375 97.03125 16.5625 96.980469 16.5625 C 96.859375 16.5625 93.828125 12.011719 93.914062 11.960938 C 93.949219 11.941406 94.3125 11.769531 94.746094 11.578125 C 96.375 10.878906 97.328125 9.625 97.671875 7.757812 C 98.296875 4.410156 97.292969 2.160156 94.605469 0.835938 L 93.445312 0.261719 L 85.011719 0.210938 L 76.558594 0.15625 Z M 76.558594 2.179688 "/>
<path style=" stroke:none;fill-rule:nonzero;fill:rgb(0%,0%,0%);fill-opacity:1;" d="M 22.515625 2.441406 L 22.515625 4.53125 L 28.925781 4.53125 L 28.925781 0.347656 L 22.515625 0.347656 Z M 22.515625 2.441406 "/>
<path style=" stroke:none;fill-rule:nonzero;fill:rgb(0%,0%,0%);fill-opacity:1;" d="M 0.867188 6.484375 C 0.882812 6.957031 1.542969 8.125 2.097656 8.664062 C 3.082031 9.605469 4.710938 10.234375 8.402344 11.089844 C 12.230469 11.976562 13.234375 12.328125 13.371094 12.867188 C 13.511719 13.371094 13.148438 14 12.558594 14.296875 C 11.796875 14.679688 8.921875 14.644531 8.191406 14.246094 C 7.585938 13.929688 7.101562 13.164062 7.101562 12.554688 C 7.101562 12.222656 7.015625 12.203125 3.550781 12.203125 L 0 12.203125 L 0 12.867188 C 0 13.808594 0.902344 15.550781 1.785156 16.300781 C 2.839844 17.226562 4.484375 17.941406 6.390625 18.339844 C 8.660156 18.8125 13.09375 18.707031 15.050781 18.148438 C 18.757812 17.050781 20.4375 15.359375 20.4375 12.691406 C 20.4375 10.828125 19.816406 9.710938 18.257812 8.789062 C 17.183594 8.160156 15.78125 7.707031 12.644531 7.007812 C 9.839844 6.398438 9.699219 6.382812 5.335938 6.328125 C 1.75 6.277344 0.867188 6.3125 0.867188 6.484375 Z M 0.867188 6.484375 "/>
<path style=" stroke:none;fill-rule:nonzero;fill:rgb(0%,0%,0%);fill-opacity:1;" d="M 22.515625 12.640625 L 22.515625 18.308594 L 28.925781 18.308594 L 28.925781 6.972656 L 22.515625 6.972656 Z M 22.515625 12.640625 "/>
<path style=" stroke:none;fill-rule:nonzero;fill:rgb(0%,0%,0%);fill-opacity:1;" d="M 32.5625 12.640625 L 32.5625 18.308594 L 51.789062 18.308594 L 51.789062 13.597656 L 39.144531 13.597656 L 39.144531 11.507812 L 48.324219 11.507812 L 48.324219 6.972656 L 32.5625 6.972656 Z M 32.5625 12.640625 "/>
<path style=" stroke:none;fill-rule:nonzero;fill:rgb(0%,0%,0%);fill-opacity:1;" d="M 23.660156 23.554688 C 20.664062 24.027344 18.082031 26.9375 17.875 30.058594 C 17.5625 35.042969 21.929688 38.652344 26.761719 37.378906 C 27.332031 37.242188 28.027344 36.980469 28.320312 36.804688 L 28.839844 36.507812 L 28.839844 34.644531 C 28.855469 33.613281 28.820312 32.777344 28.789062 32.777344 C 28.753906 32.777344 28.371094 33.074219 27.921875 33.457031 C 26.710938 34.46875 26.035156 34.746094 24.90625 34.746094 C 23.019531 34.730469 21.566406 33.597656 21.027344 31.765625 C 20.542969 30.09375 21.027344 28.453125 22.378906 27.304688 C 23.988281 25.910156 26.015625 26.03125 28.007812 27.652344 C 28.40625 27.984375 28.753906 28.246094 28.789062 28.246094 C 28.820312 28.246094 28.855469 27.425781 28.875 26.414062 L 28.890625 24.582031 L 27.992188 24.164062 C 26.605469 23.519531 25.203125 23.3125 23.660156 23.554688 Z M 23.660156 23.554688 "/>
<path style=" stroke:none;fill-rule:nonzero;fill:rgb(0%,0%,0%);fill-opacity:1;" d="M 55.148438 23.539062 C 53.78125 23.746094 52.414062 24.460938 51.339844 25.523438 C 47.042969 29.867188 49.625 37.152344 55.636719 37.605469 C 57.003906 37.710938 58.71875 37.378906 59.671875 36.824219 L 60.191406 36.507812 L 60.226562 34.644531 C 60.242188 33.613281 60.207031 32.777344 60.15625 32.777344 C 60.121094 32.777344 59.722656 33.074219 59.273438 33.457031 C 58.078125 34.453125 57.488281 34.695312 56.277344 34.695312 C 53.78125 34.695312 52.050781 32.8125 52.238281 30.265625 C 52.328125 29.027344 52.792969 28.105469 53.730469 27.304688 C 54.597656 26.554688 55.566406 26.257812 56.675781 26.378906 C 57.609375 26.5 58.179688 26.761719 59.308594 27.632812 C 59.738281 27.964844 60.121094 28.246094 60.15625 28.246094 C 60.171875 28.246094 60.207031 27.425781 60.226562 26.414062 L 60.261719 24.582031 L 59.617188 24.253906 C 58.355469 23.605469 56.585938 23.328125 55.148438 23.539062 Z M 55.148438 23.539062 "/>
<path style=" stroke:none;fill-rule:nonzero;fill:rgb(0%,0%,0%);fill-opacity:1;" d="M 96.445312 23.605469 C 93.984375 24.285156 92.703125 26.761719 93.722656 28.890625 C 94.175781 29.847656 95.214844 30.632812 96.808594 31.296875 C 98.332031 31.90625 98.902344 32.429688 98.902344 33.25 C 98.902344 34.085938 98.261719 34.695312 97.363281 34.695312 C 96.375 34.695312 95.785156 33.980469 95.785156 32.777344 L 95.785156 32.289062 L 94.363281 32.621094 C 93.566406 32.796875 92.875 32.953125 92.824219 32.953125 C 92.617188 32.953125 93.015625 34.609375 93.429688 35.394531 C 94.761719 37.992188 98.46875 38.460938 100.636719 36.28125 C 101.535156 35.375 101.917969 34.328125 101.882812 32.847656 C 101.847656 31.035156 100.703125 29.710938 98.347656 28.734375 C 97.015625 28.175781 96.304688 27.703125 96.304688 27.355469 C 96.304688 27.269531 96.496094 26.988281 96.738281 26.761719 C 97.5 25.996094 98.503906 26.273438 99.179688 27.460938 C 99.335938 27.757812 99.441406 27.722656 100.601562 27.042969 L 101.847656 26.292969 L 101.328125 25.523438 C 100.148438 23.816406 98.3125 23.101562 96.445312 23.605469 Z M 96.445312 23.605469 "/>
<path style=" stroke:none;fill-rule:nonzero;fill:rgb(0%,0%,0%);fill-opacity:1;" d="M 31.871094 30.597656 L 31.871094 37.484375 L 34.816406 37.484375 L 34.816406 23.710938 L 31.871094 23.710938 Z M 31.871094 30.597656 "/>
<path style=" stroke:none;fill-rule:nonzero;fill:rgb(0%,0%,0%);fill-opacity:1;" d="M 38.453125 30.582031 L 38.453125 37.484375 L 41.378906 37.484375 L 41.433594 35.289062 L 41.484375 33.089844 L 42.957031 35.253906 L 44.429688 37.398438 L 46.230469 37.449219 C 47.738281 37.484375 48.015625 37.449219 47.925781 37.242188 C 47.875 37.101562 46.992188 35.847656 45.988281 34.433594 C 44.964844 33.023438 44.203125 31.820312 44.289062 31.75 C 44.359375 31.679688 44.707031 31.417969 45.050781 31.15625 C 46.835938 29.847656 46.957031 26.429688 45.277344 24.933594 C 44.21875 24.007812 43.613281 23.832031 40.929688 23.746094 L 38.453125 23.675781 Z M 42.367188 26.675781 C 43.042969 26.675781 43.648438 27.390625 43.5625 28.085938 C 43.457031 28.855469 42.992188 29.289062 42.105469 29.414062 L 41.398438 29.515625 L 41.398438 27.984375 C 41.398438 26.675781 41.433594 26.484375 41.675781 26.570312 C 41.832031 26.625 42.140625 26.675781 42.367188 26.675781 Z M 42.367188 26.675781 "/>
<path style=" stroke:none;fill-rule:nonzero;fill:rgb(0%,0%,0%);fill-opacity:1;" d="M 63.257812 28.890625 C 63.308594 34.765625 63.324219 34.816406 64.746094 36.210938 C 67.238281 38.652344 71.5 37.902344 73.042969 34.730469 L 73.527344 33.738281 L 73.597656 28.714844 L 73.648438 23.710938 L 70.496094 23.710938 L 70.496094 28.453125 C 70.496094 32.863281 70.460938 33.25 70.148438 33.773438 C 69.976562 34.066406 69.664062 34.417969 69.472656 34.519531 C 68.902344 34.816406 67.621094 34.78125 67.101562 34.433594 C 66.253906 33.875 66.167969 33.371094 66.167969 28.332031 L 66.167969 23.710938 L 63.203125 23.710938 Z M 63.257812 28.890625 "/>
<path style=" stroke:none;fill-rule:nonzero;fill:rgb(0%,0%,0%);fill-opacity:1;" d="M 77.078125 30.597656 L 77.078125 37.484375 L 78.535156 37.484375 C 79.972656 37.484375 79.988281 37.484375 80.074219 36.996094 C 80.128906 36.734375 80.179688 33.648438 80.195312 30.109375 L 80.195312 23.710938 L 77.078125 23.710938 Z M 77.078125 30.597656 "/>
<path style=" stroke:none;fill-rule:nonzero;fill:rgb(0%,0%,0%);fill-opacity:1;" d="M 82.484375 25.140625 L 82.535156 26.589844 L 83.886719 26.589844 C 84.960938 26.589844 85.21875 26.640625 85.21875 26.851562 C 85.21875 26.988281 85.253906 29.429688 85.269531 32.253906 L 85.304688 37.398438 L 86.8125 37.449219 L 88.335938 37.503906 L 88.371094 32.0625 L 88.421875 26.640625 L 89.722656 26.605469 L 91.023438 26.589844 L 91.074219 25.140625 L 91.125 23.710938 L 82.429688 23.710938 Z M 82.484375 25.140625 "/>
<path style=" stroke:none;fill-rule:nonzero;fill:rgb(0%,0%,0%);fill-opacity:1;" d="M 109.035156 43.132812 C 107.183594 43.726562 105.96875 44.773438 105.191406 46.464844 C 104.792969 47.335938 104.707031 47.738281 104.707031 48.90625 C 104.707031 50.054688 104.792969 50.472656 105.191406 51.363281 C 106.421875 54.03125 109.347656 55.425781 112.136719 54.675781 C 114.71875 53.960938 116.34375 51.972656 116.519531 49.253906 C 116.621094 47.859375 116.222656 46.464844 115.410156 45.277344 C 114.164062 43.464844 111.167969 42.453125 109.035156 43.132812 Z M 112.238281 44.234375 C 115.757812 45.382812 116.726562 50.039062 113.953125 52.550781 C 111.566406 54.710938 107.910156 54.117188 106.230469 51.292969 C 105.796875 50.5625 105.746094 50.300781 105.746094 48.992188 C 105.746094 47.773438 105.8125 47.371094 106.144531 46.726562 C 107.339844 44.40625 109.761719 43.429688 112.238281 44.234375 Z M 112.238281 44.234375 "/>
<path style=" stroke:none;fill-rule:nonzero;fill:rgb(0%,0%,0%);fill-opacity:1;" d="M 107.910156 48.90625 L 107.910156 52.480469 L 108.949219 52.480469 L 108.949219 49.515625 L 109.605469 49.515625 C 110.402344 49.515625 110.75 49.828125 111.582031 51.347656 C 112.085938 52.253906 112.238281 52.390625 112.726562 52.445312 C 113.035156 52.480469 113.28125 52.425781 113.28125 52.339844 C 113.28125 52.027344 111.546875 49.515625 111.339844 49.515625 C 111.21875 49.496094 111.390625 49.359375 111.738281 49.167969 C 112.535156 48.75 112.933594 48.121094 112.933594 47.300781 C 112.933594 45.855469 112.03125 45.332031 109.554688 45.332031 L 107.910156 45.332031 Z M 111.511719 46.65625 C 111.753906 46.832031 111.894531 47.109375 111.894531 47.421875 C 111.894531 48.15625 111.339844 48.46875 110.039062 48.46875 L 108.949219 48.46875 L 108.949219 46.378906 L 110.039062 46.378906 C 110.734375 46.378906 111.253906 46.464844 111.511719 46.65625 Z M 111.511719 46.65625 "/>
<path style=" stroke:none;fill-rule:nonzero;fill:rgb(0%,0%,0%);fill-opacity:1;" d="M 4.15625 48.886719 L 4.15625 54.746094 L 5.714844 54.746094 L 5.714844 50.039062 L 7.621094 50.039062 C 10.894531 50.039062 12.105469 49.515625 12.75 47.839844 C 13.113281 46.867188 12.992188 45.402344 12.472656 44.546875 C 11.742188 43.359375 11.085938 43.167969 7.414062 43.097656 L 4.15625 43.03125 Z M 10.84375 45.015625 C 11.464844 45.644531 11.605469 46.933594 11.101562 47.71875 C 10.652344 48.453125 9.90625 48.644531 7.585938 48.644531 L 5.714844 48.644531 L 5.714844 44.425781 L 8.054688 44.492188 C 10.304688 44.546875 10.394531 44.5625 10.84375 45.015625 Z M 10.84375 45.015625 "/>
<path style=" stroke:none;fill-rule:nonzero;fill:rgb(0%,0%,0%);fill-opacity:1;" d="M 47.460938 48.90625 L 47.460938 54.746094 L 55.945312 54.746094 L 55.945312 53.351562 L 48.84375 53.351562 L 48.84375 49.339844 L 55.253906 49.339844 L 55.253906 47.945312 L 48.84375 47.945312 L 48.84375 44.460938 L 52.207031 44.460938 C 55.84375 44.460938 55.859375 44.460938 55.703125 43.5 C 55.652344 43.167969 55.496094 43.152344 51.566406 43.097656 L 47.460938 43.0625 Z M 47.460938 48.90625 "/>
<path style=" stroke:none;fill-rule:nonzero;fill:rgb(0%,0%,0%);fill-opacity:1;" d="M 30.015625 43.761719 C 29.480469 44.09375 29.445312 44.164062 29.445312 45.15625 L 29.445312 46.203125 L 28.925781 46.203125 C 28.441406 46.203125 28.40625 46.238281 28.40625 46.898438 C 28.40625 47.5625 28.441406 47.597656 28.925781 47.597656 L 29.445312 47.597656 L 29.445312 50.71875 C 29.445312 53.753906 29.464844 53.875 29.84375 54.328125 C 30.171875 54.710938 30.433594 54.816406 31.210938 54.886719 C 32.285156 54.972656 32.476562 54.832031 32.304688 54.046875 C 32.21875 53.628906 32.097656 53.527344 31.714844 53.527344 C 30.882812 53.527344 30.832031 53.316406 30.832031 50.351562 L 30.832031 47.597656 L 32.21875 47.597656 L 32.21875 46.203125 L 30.832031 46.203125 L 30.832031 44.808594 C 30.832031 44.039062 30.78125 43.414062 30.710938 43.414062 C 30.625 43.414062 30.3125 43.570312 30.015625 43.761719 Z M 30.015625 43.761719 "/>
<path style=" stroke:none;fill-rule:nonzero;fill:rgb(0%,0%,0%);fill-opacity:1;" d="M 16.628906 46.65625 L 15.953125 47.285156 L 15.988281 46.777344 C 16.023438 46.324219 15.96875 46.289062 15.382812 46.238281 L 14.722656 46.183594 L 14.722656 54.746094 L 16.109375 54.746094 L 16.109375 52.410156 C 16.109375 49.480469 16.300781 48.347656 16.90625 47.808594 C 17.371094 47.40625 17.996094 47.320312 18.535156 47.597656 C 18.792969 47.738281 18.863281 47.683594 18.949219 47.351562 C 19 47.125 19.085938 46.8125 19.15625 46.671875 C 19.210938 46.5 19.070312 46.359375 18.6875 46.21875 C 17.789062 45.90625 17.355469 45.992188 16.628906 46.65625 Z M 16.628906 46.65625 "/>
<path style=" stroke:none;fill-rule:nonzero;fill:rgb(0%,0%,0%);fill-opacity:1;" d="M 22.101562 46.289062 C 21.199219 46.605469 20.335938 47.492188 19.972656 48.453125 C 19.554688 49.515625 19.554688 51.433594 19.972656 52.515625 C 20.921875 54.972656 24.078125 55.703125 26.136719 53.945312 C 27.019531 53.175781 27.382812 52.21875 27.382812 50.632812 C 27.382812 48.835938 27.125 48.050781 26.277344 47.179688 C 25.183594 46.082031 23.609375 45.75 22.101562 46.289062 Z M 24.734375 47.773438 C 25.636719 48.328125 25.980469 49.0625 25.980469 50.472656 C 25.980469 51.886719 25.636719 52.617188 24.734375 53.175781 C 23.644531 53.839844 22.136719 53.472656 21.460938 52.355469 C 20.941406 51.539062 20.921875 49.480469 21.410156 48.644531 C 22.066406 47.511719 23.625 47.09375 24.734375 47.773438 Z M 24.734375 47.773438 "/>
<path style=" stroke:none;fill-rule:nonzero;fill:rgb(0%,0%,0%);fill-opacity:1;" d="M 35.613281 46.289062 C 34.710938 46.605469 33.84375 47.492188 33.480469 48.453125 C 33.066406 49.515625 33.066406 51.433594 33.480469 52.515625 C 34.453125 55.058594 37.777344 55.722656 39.769531 53.785156 C 40.617188 52.96875 40.945312 52.042969 40.914062 50.4375 C 40.894531 48.835938 40.601562 48.015625 39.785156 47.179688 C 38.695312 46.082031 37.117188 45.75 35.613281 46.289062 Z M 38.246094 47.773438 C 39.144531 48.328125 39.492188 49.0625 39.492188 50.472656 C 39.492188 51.886719 39.144531 52.617188 38.246094 53.175781 C 37.101562 53.875 35.542969 53.4375 34.917969 52.21875 C 34.46875 51.328125 34.46875 49.65625 34.917969 48.730469 C 35.507812 47.527344 37.085938 47.058594 38.246094 47.773438 Z M 38.246094 47.773438 "/>
<path style=" stroke:none;fill-rule:nonzero;fill:rgb(0%,0%,0%);fill-opacity:1;" d="M 68.660156 46.273438 C 68.367188 46.410156 67.96875 46.726562 67.761719 46.96875 C 67.363281 47.476562 67.238281 47.40625 67.292969 46.671875 C 67.328125 46.238281 67.273438 46.203125 66.652344 46.203125 L 65.992188 46.203125 L 65.992188 57.882812 L 67.378906 57.882812 L 67.378906 53.628906 L 67.863281 54.082031 C 68.800781 54.957031 69.421875 55.09375 70.738281 54.710938 C 71.726562 54.414062 72.660156 53.402344 72.992188 52.289062 C 73.335938 51.121094 73.335938 49.429688 73.007812 48.453125 C 72.351562 46.605469 70.289062 45.558594 68.660156 46.273438 Z M 70.859375 47.894531 C 71.554688 48.488281 71.882812 49.269531 71.882812 50.335938 C 71.882812 52.21875 71.121094 53.332031 69.769531 53.472656 C 68.433594 53.613281 67.515625 52.707031 67.328125 51.101562 C 67.03125 48.417969 69.179688 46.464844 70.859375 47.894531 Z M 70.859375 47.894531 "/>
<path style=" stroke:none;fill-rule:nonzero;fill:rgb(0%,0%,0%);fill-opacity:1;" d="M 76.90625 46.65625 L 76.230469 47.285156 L 76.265625 46.777344 C 76.300781 46.324219 76.246094 46.289062 75.65625 46.238281 L 75 46.183594 L 75 54.746094 L 76.386719 54.746094 L 76.386719 52.410156 C 76.386719 49.480469 76.578125 48.347656 77.183594 47.808594 C 77.648438 47.40625 78.273438 47.320312 78.8125 47.597656 C 79.070312 47.738281 79.140625 47.683594 79.226562 47.351562 C 79.277344 47.125 79.363281 46.8125 79.433594 46.671875 C 79.484375 46.5 79.347656 46.359375 78.964844 46.21875 C 78.066406 45.90625 77.632812 45.992188 76.90625 46.65625 Z M 76.90625 46.65625 "/>
<path style=" stroke:none;fill-rule:nonzero;fill:rgb(0%,0%,0%);fill-opacity:1;" d="M 82.535156 46.238281 C 80.921875 46.8125 80.023438 48.277344 80.023438 50.386719 C 80.023438 52.078125 80.25 52.878906 80.992188 53.699219 C 81.964844 54.78125 83.660156 55.183594 85.304688 54.726562 C 86.050781 54.519531 87.351562 53.316406 87.503906 52.707031 C 87.59375 52.390625 87.503906 52.324219 86.933594 52.234375 C 86.328125 52.128906 86.207031 52.183594 85.6875 52.757812 C 85.183594 53.316406 84.976562 53.421875 84.164062 53.472656 C 82.761719 53.578125 81.753906 52.828125 81.476562 51.46875 L 81.375 50.910156 L 87.695312 50.910156 L 87.59375 49.882812 C 87.402344 48.066406 86.777344 47.039062 85.496094 46.445312 C 84.542969 46.011719 83.433594 45.921875 82.535156 46.238281 Z M 84.960938 47.667969 C 85.53125 47.910156 86.085938 48.695312 86.085938 49.253906 C 86.085938 49.480469 85.738281 49.515625 83.765625 49.515625 L 81.425781 49.515625 L 81.617188 48.941406 C 81.84375 48.261719 82.03125 48.050781 82.707031 47.703125 C 83.347656 47.351562 84.179688 47.351562 84.960938 47.667969 Z M 84.960938 47.667969 "/>
<path style=" stroke:none;fill-rule:nonzero;fill:rgb(0%,0%,0%);fill-opacity:1;" d="M 90.65625 46.359375 C 89.671875 46.8125 89.203125 47.476562 89.203125 48.398438 C 89.203125 49.96875 89.757812 50.457031 92.285156 51.152344 C 94.085938 51.640625 94.398438 51.816406 94.398438 52.390625 C 94.398438 53.019531 93.8125 53.402344 92.703125 53.472656 C 91.542969 53.542969 90.988281 53.316406 90.503906 52.515625 C 90.191406 52.007812 90.085938 51.957031 89.550781 52.0625 C 89.21875 52.113281 88.925781 52.183594 88.890625 52.21875 C 88.734375 52.355469 89.496094 53.769531 89.929688 54.136719 C 90.953125 54.988281 93.238281 55.164062 94.433594 54.449219 C 95.785156 53.648438 96.234375 51.816406 95.335938 50.753906 C 94.902344 50.230469 93.34375 49.636719 91.488281 49.253906 C 91.160156 49.183594 90.796875 48.957031 90.640625 48.695312 C 90.363281 48.261719 90.363281 48.242188 90.832031 47.839844 C 91.730469 47.039062 94.054688 47.457031 94.054688 48.417969 C 94.054688 48.625 94.175781 48.660156 94.710938 48.554688 C 95.507812 48.417969 95.507812 48.417969 95.371094 47.839844 C 94.988281 46.34375 92.460938 45.539062 90.65625 46.359375 Z M 90.65625 46.359375 "/>
<path style=" stroke:none;fill-rule:nonzero;fill:rgb(0%,0%,0%);fill-opacity:1;" d="M 98.800781 46.359375 C 97.8125 46.8125 97.34375 47.476562 97.34375 48.398438 C 97.34375 49.96875 97.898438 50.457031 100.425781 51.152344 C 102.230469 51.640625 102.539062 51.816406 102.539062 52.390625 C 102.539062 53.105469 101.933594 53.4375 100.636719 53.4375 C 99.371094 53.4375 98.851562 53.160156 98.539062 52.324219 C 98.402344 51.957031 98.3125 51.9375 97.726562 52.042969 C 97.378906 52.113281 97.066406 52.183594 97.03125 52.21875 C 96.996094 52.234375 97.117188 52.582031 97.273438 52.984375 C 97.8125 54.363281 99.164062 55.042969 101.015625 54.867188 C 102.210938 54.761719 102.992188 54.34375 103.546875 53.507812 C 104.097656 52.722656 104.011719 51.3125 103.40625 50.648438 C 103.027344 50.246094 101.449219 49.65625 99.683594 49.253906 C 99.09375 49.132812 98.554688 48.695312 98.554688 48.363281 C 98.554688 48.242188 98.765625 47.980469 99.007812 47.789062 C 99.941406 47.058594 102.195312 47.492188 102.195312 48.417969 C 102.195312 48.625 102.316406 48.660156 102.851562 48.554688 C 103.648438 48.417969 103.648438 48.417969 103.511719 47.839844 C 103.128906 46.34375 100.601562 45.539062 98.800781 46.359375 Z M 98.800781 46.359375 "/>
<path style=" stroke:none;fill-rule:nonzero;fill:rgb(0%,0%,0%);fill-opacity:1;" d="M 58.578125 48.226562 C 60.207031 50.578125 60.261719 50.003906 58.234375 52.914062 L 56.96875 54.746094 L 57.800781 54.746094 C 58.632812 54.746094 58.632812 54.726562 59.410156 53.59375 C 59.84375 52.96875 60.363281 52.234375 60.554688 51.9375 L 60.917969 51.433594 L 62.007812 53.089844 L 63.101562 54.746094 L 64.796875 54.746094 L 63.308594 52.566406 C 62.476562 51.363281 61.835938 50.28125 61.886719 50.160156 C 61.941406 50.039062 62.5625 49.113281 63.273438 48.066406 L 64.589844 46.203125 L 62.894531 46.203125 L 61.871094 47.683594 L 60.847656 49.167969 L 59.914062 47.71875 L 58.976562 46.289062 L 58.078125 46.238281 L 57.160156 46.183594 Z M 58.578125 48.226562 "/>
</g>
</svg>
